<svg width="62" height="9" viewBox="0 0 62 9" fill="none" xmlns="http://www.w3.org/2000/svg">
<path d="M5.28906 1.0625C5.83594 1.09375 6.28516 1.30469 6.63672 1.69531C6.98828 2.07812 7.24219 2.51562 7.39844 3.00781C7.55469 3.5 7.63281 4.00391 7.63281 4.51953C7.63281 5.03516 7.55469 5.53906 7.39844 6.03125C7.25 6.52344 6.99609 6.96484 6.63672 7.35547C6.28516 7.73828 5.83594 7.94531 5.28906 7.97656H0.976562C0.765625 7.96875 0.585938 7.89453 0.4375 7.75391C0.296875 7.60547 0.222656 7.42578 0.214844 7.21484V4.30859C0.222656 4.08984 0.304688 3.91016 0.460938 3.76953C0.617188 3.62109 0.804688 3.54688 1.02344 3.54688C1.23438 3.55469 1.41406 3.63281 1.5625 3.78125C1.71094 3.92188 1.78906 4.09766 1.79688 4.30859V6.08984C1.79688 6.30078 1.90625 6.40625 2.125 6.40625H4.89062C5.1875 6.39062 5.43359 6.27734 5.62891 6.06641C5.82422 5.85547 5.96484 5.61719 6.05078 5.35156C6.14453 5.07812 6.19141 4.80078 6.19141 4.51953C6.19141 4.23828 6.14453 3.96484 6.05078 3.69922C5.96484 3.42578 5.82422 3.18359 5.62891 2.97266C5.43359 2.76172 5.1875 2.64844 4.89062 2.63281H0.976562C0.507812 2.59375 0.253906 2.33984 0.214844 1.87109C0.214844 1.65234 0.285156 1.46484 0.425781 1.30859C0.574219 1.15234 0.757812 1.07031 0.976562 1.0625H5.28906ZM16.4922 1.84766C16.4922 2.06641 16.4141 2.25 16.2578 2.39844C16.1094 2.55469 15.9258 2.63281 15.707 2.63281H11.0195C10.8711 2.64062 10.7461 2.67578 10.6445 2.73828C10.5508 2.79297 10.4805 2.85938 10.4336 2.9375C10.3867 3.00781 10.3633 3.08203 10.3633 3.16016C10.3633 3.23828 10.3867 3.31641 10.4336 3.39453C10.4805 3.46484 10.5508 3.53125 10.6445 3.59375C10.7461 3.64844 10.8711 3.67969 11.0195 3.6875H14.3477C14.8945 3.70312 15.3438 3.83203 15.6953 4.07422C16.0547 4.30859 16.3086 4.58203 16.457 4.89453C16.6133 5.19922 16.6914 5.51172 16.6914 5.83203C16.6914 6.14453 16.6133 6.45703 16.457 6.76953C16.3008 7.07422 16.0469 7.34766 15.6953 7.58984C15.3438 7.82422 14.8945 7.94141 14.3477 7.94141H14.2773C14.2305 7.94922 14.1836 7.95312 14.1367 7.95312H9.70703C9.48828 7.95312 9.30078 7.87891 9.14453 7.73047C8.99609 7.57422 8.92188 7.38672 8.92188 7.16797C8.92188 6.94922 9 6.76562 9.15625 6.61719C9.30469 6.46094 9.48828 6.38281 9.70703 6.38281H14.418C14.5664 6.39062 14.6875 6.36328 14.7812 6.30078C14.8828 6.23828 14.957 6.16797 15.0039 6.08984C15.0508 6.00391 15.0742 5.91797 15.0742 5.83203C15.0742 5.77734 15.0508 5.70312 15.0039 5.60938C14.957 5.50781 14.8828 5.42578 14.7812 5.36328C14.6875 5.30078 14.5664 5.26562 14.418 5.25781H11.0898C10.543 5.24219 10.0898 5.11719 9.73047 4.88281C9.37891 4.64844 9.125 4.38281 8.96875 4.08594C8.82031 3.78125 8.74609 3.47266 8.74609 3.16016C8.74609 2.85547 8.82422 2.55469 8.98047 2.25781C9.13672 1.95312 9.39062 1.68359 9.74219 1.44922C10.0938 1.21484 10.543 1.08984 11.0898 1.07422H11.1602C11.207 1.06641 11.2539 1.0625 11.3008 1.0625H15.707C15.9258 1.0625 16.1094 1.14062 16.2578 1.29688C16.4141 1.44531 16.4922 1.62891 16.4922 1.84766Z" fill="#4D6BFE"/>
<path d="M25.5859 1.84766C25.5859 2.06641 25.5078 2.25 25.3516 2.39844C25.2031 2.55469 25.0195 2.63281 24.8008 2.63281H20.1133C19.9648 2.64062 19.8398 2.67578 19.7383 2.73828C19.6445 2.79297 19.5742 2.85938 19.5273 2.9375C19.4805 3.00781 19.457 3.08203 19.457 3.16016C19.457 3.23828 19.4805 3.31641 19.5273 3.39453C19.5742 3.46484 19.6445 3.53125 19.7383 3.59375C19.8398 3.64844 19.9648 3.67969 20.1133 3.6875H23.4414C23.9883 3.70312 24.4375 3.83203 24.7891 4.07422C25.1484 4.30859 25.4023 4.58203 25.5508 4.89453C25.707 5.19922 25.7852 5.51172 25.7852 5.83203C25.7852 6.14453 25.707 6.45703 25.5508 6.76953C25.3945 7.07422 25.1406 7.34766 24.7891 7.58984C24.4375 7.82422 23.9883 7.94141 23.4414 7.94141H23.3711C23.3242 7.94922 23.2773 7.95312 23.2305 7.95312H18.8008C18.582 7.95312 18.3945 7.87891 18.2383 7.73047C18.0898 7.57422 18.0156 7.38672 18.0156 7.16797C18.0156 6.94922 18.0938 6.76562 18.25 6.61719C18.3984 6.46094 18.582 6.38281 18.8008 6.38281H23.5117C23.6602 6.39062 23.7812 6.36328 23.875 6.30078C23.9766 6.23828 24.0508 6.16797 24.0977 6.08984C24.1445 6.00391 24.168 5.91797 24.168 5.83203C24.168 5.77734 24.1445 5.70312 24.0977 5.60938C24.0508 5.50781 23.9766 5.42578 23.875 5.36328C23.7812 5.30078 23.6602 5.26562 23.5117 5.25781H20.1836C19.6367 5.24219 19.1836 5.11719 18.8242 4.88281C18.4727 4.64844 18.2188 4.38281 18.0625 4.08594C17.9141 3.78125 17.8398 3.47266 17.8398 3.16016C17.8398 2.85547 17.918 2.55469 18.0742 2.25781C18.2305 1.95312 18.4844 1.68359 18.8359 1.44922C19.1875 1.21484 19.6367 1.08984 20.1836 1.07422H20.2539C20.3008 1.06641 20.3477 1.0625 20.3945 1.0625H24.8008C25.0195 1.0625 25.2031 1.14062 25.3516 1.29688C25.5078 1.44531 25.5859 1.62891 25.5859 1.84766ZM27.9062 0.875C28.1172 0.882812 28.2969 0.960938 28.4453 1.10938C28.5938 1.25 28.6719 1.42578 28.6797 1.63672V2.65625H32.3125C32.8594 2.66406 33.3086 2.82031 33.6602 3.125C34.0195 3.42188 34.2734 3.75781 34.4219 4.13281C34.5781 4.51562 34.6562 4.91016 34.6562 5.31641H34.668V7.35547C34.668 7.57422 34.5859 7.75781 34.4219 7.90625C34.2656 8.04688 34.0781 8.11719 33.8594 8.11719C33.3906 8.07812 33.1328 7.82422 33.0859 7.35547V5.30469C33.0859 5.15625 33.0547 5 32.9922 4.83594C32.9375 4.67188 32.8555 4.53125 32.7461 4.41406C32.6367 4.28906 32.5078 4.22656 32.3594 4.22656H28.6797V7.37891C28.6328 7.84766 28.375 8.10156 27.9062 8.14062C27.6875 8.14062 27.4961 8.07031 27.332 7.92969C27.1758 7.78125 27.0977 7.59766 27.0977 7.37891V1.63672C27.1055 1.41797 27.1875 1.23828 27.3438 1.09766C27.5 0.949219 27.6875 0.875 27.9062 0.875ZM42.6953 7.35547V4.53125C42.6953 4.33594 42.5938 4.23438 42.3906 4.22656H38.2891C38.1406 4.23438 38.0117 4.30078 37.9023 4.42578C37.793 4.54297 37.7109 4.68359 37.6562 4.84766C37.6094 5.00391 37.5859 5.16406 37.5859 5.32812C37.5859 5.48438 37.6094 5.64453 37.6562 5.80859C37.7109 5.96484 37.793 6.10547 37.9023 6.23047C38.0117 6.34766 38.1406 6.40625 38.2891 6.40625H41.2891C41.5078 6.40625 41.6914 6.48438 41.8398 6.64062C41.9961 6.78906 42.0742 6.97266 42.0742 7.19141C42.0742 7.41016 41.9961 7.59375 41.8398 7.74219C41.6914 7.89844 41.5078 7.97656 41.2891 7.97656H38.3359C37.7891 7.96875 37.3359 7.81641 36.9766 7.51953C36.625 7.21484 36.3711 6.875 36.2148 6.5C36.0664 6.11719 35.9922 5.72266 35.9922 5.31641C35.9922 4.92578 36.0703 4.54297 36.2266 4.16797C36.3828 3.78516 36.6367 3.44531 36.9883 3.14844C37.3398 2.84375 37.8594 2.67969 38.5469 2.65625H43.4688C43.6875 2.65625 43.875 2.73047 44.0312 2.87891C44.1875 3.01953 44.2695 3.19922 44.2773 3.41797V7.35547C44.2773 7.57422 44.1953 7.75781 44.0312 7.90625C43.875 8.04688 43.6875 8.11719 43.4688 8.11719C43 8.07812 42.7422 7.82422 42.6953 7.35547ZM46.0352 4.13281C46.1836 3.75781 46.4336 3.42188 46.7852 3.125C47.1445 2.82031 47.5977 2.66406 48.1445 2.65625H52.5508C52.7695 2.65625 52.9531 2.73438 53.1016 2.89062C53.2578 3.03906 53.3359 3.22266 53.3359 3.44141C53.3359 3.66016 53.2578 3.84766 53.1016 4.00391C52.9531 4.15234 52.7695 4.22656 52.5508 4.22656H48.0977C47.9492 4.22656 47.8203 4.28906 47.7109 4.41406C47.6016 4.53125 47.5156 4.67188 47.4531 4.83594C47.3984 5 47.3711 5.15625 47.3711 5.30469V7.35547C47.3242 7.82422 47.0664 8.07812 46.5977 8.11719C46.3789 8.11719 46.1875 8.04688 46.0234 7.90625C45.8672 7.75781 45.7891 7.57422 45.7891 7.35547V5.31641H45.8008C45.8008 4.91016 45.8789 4.51562 46.0352 4.13281ZM56.8984 7.97656C56.2109 7.95312 55.6914 7.79297 55.3398 7.49609C54.9883 7.19141 54.7344 6.85156 54.5781 6.47656C54.4219 6.09375 54.3438 5.70703 54.3438 5.31641C54.3438 4.91016 54.418 4.51953 54.5664 4.14453C54.7227 3.76172 54.9766 3.42188 55.3281 3.125C55.6875 2.82031 56.1406 2.66406 56.6875 2.65625H61.1406C61.3594 2.65625 61.543 2.73047 61.6914 2.87891C61.8477 3.01953 61.9258 3.19141 61.9258 3.39453C61.9258 3.60547 61.8477 3.78516 61.6914 3.93359C61.543 4.07422 61.3594 4.14453 61.1406 4.14453H56.7578C56.5859 4.14453 56.4336 4.20312 56.3008 4.32031C56.1758 4.4375 56.082 4.58984 56.0195 4.77734C55.9648 4.96484 55.9375 5.14844 55.9375 5.32812C55.9375 5.52344 55.9648 5.71484 56.0195 5.90234C56.082 6.08984 56.1758 6.24219 56.3008 6.35938C56.4336 6.46875 56.5859 6.52734 56.7578 6.53516H61.1406C61.3594 6.53516 61.543 6.60547 61.6914 6.74609C61.8477 6.88672 61.9258 7.05469 61.9258 7.25C61.9258 7.45312 61.8477 7.625 61.6914 7.76562C61.543 7.90625 61.3594 7.97656 61.1406 7.97656H56.8984ZM61.7852 5.29297C61.7852 5.44141 61.7188 5.57031 61.5859 5.67969C61.4688 5.78125 61.3203 5.83203 61.1406 5.83203H57.3086C57.1289 5.83203 56.9766 5.78125 56.8516 5.67969C56.7266 5.57031 56.6641 5.44141 56.6641 5.29297C56.6641 5.15234 56.7266 5.02734 56.8516 4.91797C56.9766 4.81641 57.1289 4.76562 57.3086 4.76562H61.1406C61.3203 4.76562 61.4727 4.82031 61.5977 4.92969C61.7227 5.03125 61.7852 5.15234 61.7852 5.29297Z" fill="black"/>
</svg>
